<?xml version="1.0" encoding="UTF-8"?>
<svg version="1.1" xmlns="http://www.w3.org/2000/svg" width="256" height="256">
<path d="M0 0 C4.56404278 2.73842567 8.54756665 7.26368542 11 12 C11.55643452 15.79979607 11.46948872 17.36197687 9.171875 20.484375 C8.37265625 21.23203125 7.5734375 21.9796875 6.75 22.75 C5.56664062 23.88695312 5.56664062 23.88695312 4.359375 25.046875 C1.0625877 27.77600356 -0.59540197 29.03906829 -4.94921875 28.91796875 C-8.72493836 27.78186874 -10.22595338 26.26037 -12.8125 23.3125 C-13.58207031 22.46300781 -14.35164063 21.61351562 -15.14453125 20.73828125 C-17.24117219 17.64408062 -17.94518549 15.73236989 -18 12 C-16.7421875 9.8046875 -16.7421875 9.8046875 -14.875 7.875 C-13.89853516 6.86566406 -13.89853516 6.86566406 -12.90234375 5.8359375 C-12.27457031 5.23007813 -11.64679687 4.62421875 -11 4 C-10.154375 3.175 -9.30875 2.35 -8.4375 1.5 C-5.30166485 -0.42974471 -3.62365014 -0.60394169 0 0 Z " fill="#00299D" transform="translate(53,183)"/>
<path d="M0 0 C2.95703125 1.9765625 2.95703125 1.9765625 5.8125 4.625 C6.76769531 5.48351562 7.72289062 6.34203125 8.70703125 7.2265625 C11.30539334 10.36938547 12.07442542 11.9331823 12 16 C10.48828125 18.66796875 10.48828125 18.66796875 8.3125 21.1875 C7.25482422 22.44626953 7.25482422 22.44626953 6.17578125 23.73046875 C1.17513292 28.94658487 1.17513292 28.94658487 -2.75 29.125 C-7.4546427 27.49646983 -10.47973298 24.43770212 -14 21 C-14.57363281 20.55398437 -15.14726562 20.10796875 -15.73828125 19.6484375 C-17 18 -17 18 -17.42578125 15.140625 C-16.90437586 11.2946623 -15.68655601 9.68582796 -13.1875 6.75 C-12.47980469 5.89921875 -11.77210938 5.0484375 -11.04296875 4.171875 C-7.47025084 0.37372747 -5.14995949 -0.67145843 0 0 Z " fill="#00299D" transform="translate(209,183)"/>
<path d="M0 0 C2.5 1.5 2.5 1.5 4.5 3.5 C5.07057493 10.00455417 4.32666958 16.96467242 0.11328125 22.234375 C-2.16393135 24.02085656 -4.28272769 23.96549762 -7.1015625 23.85546875 C-11.77040131 23.1635073 -16.35399563 21.76145693 -20.5 19.5 C-22.38338704 16.75500481 -22.51239007 15.71063126 -22.3125 12.3125 C-19.89794608 0.98267009 -19.89794608 0.98267009 -16.4375 -2.6875 C-10.72087355 -4.26869455 -5.30775337 -2.27475144 0 0 Z " fill="#00299D" transform="translate(107.5,218.5)"/>
<path d="M0 0 C3.48255598 2.72789909 4.7135273 5.20028442 5.8125 9.4375 C6.06644531 10.36433594 6.32039063 11.29117188 6.58203125 12.24609375 C7.03489998 15.22994849 6.93235609 17.13599335 6 20 C2.64723215 24.39987852 -2.99202098 25.50922448 -8.2265625 26.36328125 C-11.8512773 26.60085619 -13.61065853 26.33811233 -16.375 23.9375 C-19.60018545 18.10735706 -20.75324009 12.56394931 -20 6 C-15.66387174 0.65210848 -6.57902072 -2.22463681 0 0 Z " fill="#002A9C" transform="translate(164,216)"/>
<path d="M0 0 C5.29689277 2.00639878 9.98921617 4.01461119 13 9 C13 15.58645028 9.27671391 22.66004404 4.75 27.3125 C-0.85269565 28.71317391 -6.12953132 25.58318669 -11 22.9375 C-14 21 -14 21 -15 19 C-15.43626118 14.08150702 -14.3874082 11.03370523 -12.125 6.6875 C-11.59132813 5.63949219 -11.05765625 4.59148437 -10.5078125 3.51171875 C-7.98381379 -0.69276615 -4.56987784 -0.75052738 0 0 Z " fill="#00299C" transform="translate(35,73)"/>
<path d="M0 0 C4.43414235 2.91386497 6.33684536 8.12084735 8 13 C8.55094987 16.65004289 8.62634059 18.11268417 6.5 21.125 C2.11707812 24.41219141 -3.39975153 27.84864193 -9 28 C-13.47901991 25.91506296 -15.20424522 23.56757627 -17.375 19.1875 C-17.89835938 18.17042969 -18.42171875 17.15335938 -18.9609375 16.10546875 C-20.15421367 12.53909825 -20.03919759 10.58625051 -19 7 C-13.89555131 1.74542047 -7.29998349 -0.96414876 0 0 Z " fill="#00299C" transform="translate(228,73)"/>
<path d="M0 0 C5.78908922 2.42089186 8.69485934 7.95221867 11.4375 13.4375 C11.94876493 17.27198697 11.86440288 18.87288652 9.5 22 C0.14222597 29.44802423 0.14222597 29.44802423 -5.57421875 29.42578125 C-9.58666584 28.09878894 -10.67519824 26.27346999 -12.9375 22.75 C-13.62585937 21.71488281 -14.31421875 20.67976563 -15.0234375 19.61328125 C-16.68887657 16.17672804 -17.04093188 14.2011641 -16.5625 10.4375 C-12.43232378 5.14571172 -6.72709575 0.82613457 0 0 Z " fill="#00299C" transform="translate(74.5625,27.5625)"/>
<path d="M0 0 C4.68788683 1.66372324 10.84353307 5.21050365 13.11328125 9.75 C13.66622856 14.97311037 12.3640192 17.73812253 9.48828125 22.0625 C8.47894531 23.63451172 8.47894531 23.63451172 7.44921875 25.23828125 C5.11328125 27.75 5.11328125 27.75 2.125 28.73828125 C-3.91720088 28.76179176 -8.37786154 24.95092717 -12.94921875 21.3125 C-15.38792036 18.08712045 -15.29464937 16.72732353 -14.88671875 12.75 C-13.4609375 9.828125 -13.4609375 9.828125 -11.57421875 7 C-10.65189453 5.58460937 -10.65189453 5.58460937 -9.7109375 4.140625 C-6.84240078 0.38142913 -4.69671369 -0.80457622 0 0 Z " fill="#00299C" transform="translate(184.88671875,28.25)"/>
<path d="M0 0 C3.06494053 3.15442785 3.66449902 6.1587149 4.3125 10.4375 C4.49425781 11.54996094 4.67601563 12.66242188 4.86328125 13.80859375 C5.01002117 17.23392284 4.7297274 19.05266993 3 22 C-2.36587258 25.3883635 -9.84525683 25.99627138 -16 25 C-18.85623331 23.11906587 -19.73871942 22.02912556 -20.57421875 18.73828125 C-21.03796368 15.75584823 -21.20461774 12.89292031 -21.25 9.875 C-21.27578125 8.84117187 -21.3015625 7.80734375 -21.328125 6.7421875 C-21 4 -21 4 -19.8125 2.2109375 C-14.41137424 -1.39757324 -6.11037348 -1.78219227 0 0 Z " fill="#00299D" transform="translate(34,132)"/>
<path d="M0 0 C5.05714286 2.05714286 5.05714286 2.05714286 7 4 C7.95339858 18.25663462 7.95339858 18.25663462 3.71484375 23.62890625 C0.37067065 26.30272119 -3.94169398 25.44378598 -8 25 C-11.12159448 24.27426418 -14.12356388 23.42838969 -17 22 C-19.29034273 17.41931454 -18.64582656 10.59666816 -17.43359375 5.72265625 C-13.99934339 -2.78205799 -7.77184775 -1.28163716 0 0 Z " fill="#00299C" transform="translate(236,132)"/>
<path d="M0 0 C0.75925781 -0.01933594 1.51851562 -0.03867188 2.30078125 -0.05859375 C6.19733399 -0.02447332 7.94522892 0.15864556 11 2.7265625 C12.82408651 6.25122966 13.03412616 8.66636499 13 12.625 C13.0103125 13.82125 13.020625 15.0175 13.03125 16.25 C12.38749964 20.33970818 11.67646439 21.95478462 8.5 24.625 C5.64332124 25.34142259 2.93179596 25.32466373 0 25.25 C-0.75925781 25.26933594 -1.51851562 25.28867188 -2.30078125 25.30859375 C-6.19733399 25.27447332 -7.94522892 25.09135444 -11 22.5234375 C-12.82408651 18.99877034 -13.03412616 16.58363501 -13 12.625 C-13.0103125 11.42875 -13.020625 10.2325 -13.03125 9 C-11.73599332 0.77131051 -7.34695541 -0.18710413 0 0 Z " fill="#00299B" transform="translate(158.5,115.375)"/>
<path d="M0 0 C0.75925781 -0.01933594 1.51851562 -0.03867188 2.30078125 -0.05859375 C6.19733399 -0.02447332 7.94522892 0.15864556 11 2.7265625 C12.82408651 6.25122966 13.03412616 8.66636499 13 12.625 C13.0103125 13.82125 13.020625 15.0175 13.03125 16.25 C12.38749964 20.33970818 11.67646439 21.95478462 8.5 24.625 C5.64332124 25.34142259 2.93179596 25.32466373 0 25.25 C-0.75925781 25.26933594 -1.51851562 25.28867188 -2.30078125 25.30859375 C-6.19733399 25.27447332 -7.94522892 25.09135444 -11 22.5234375 C-12.82408651 18.99877034 -13.03412616 16.58363501 -13 12.625 C-13.0103125 11.42875 -13.020625 10.2325 -13.03125 9 C-11.73599332 0.77131051 -7.34695541 -0.18710413 0 0 Z " fill="#00299B" transform="translate(97.5,115.375)"/>
<path d="M0 0 C0.76376953 -0.01546875 1.52753906 -0.0309375 2.31445312 -0.046875 C5.8582875 -0.02220078 8.0029864 0.15783255 11.06640625 2.03125 C13.14935935 5.46839455 13.14727083 8.60054184 13.0625 12.5 C13.07796875 13.2115625 13.0934375 13.923125 13.109375 14.65625 C13.08485878 17.94142291 12.77303985 20.16055821 11.03125 22.96875 C7.59920406 25.09748735 4.47699439 25.0850977 0.5625 25 C-0.1490625 25.01546875 -0.860625 25.0309375 -1.59375 25.046875 C-4.88002734 25.02235054 -7.09993178 24.70904699 -9.91015625 22.96875 C-12.03567154 19.5331345 -11.98487261 16.41288275 -11.875 12.5 C-11.88208984 11.7884375 -11.88917969 11.076875 -11.89648438 10.34375 C-11.86008094 7.34186644 -11.56736172 4.82059613 -10.4375 2.03125 C-7.24870098 -0.41017425 -3.84471208 -0.07747531 0 0 Z " fill="#00299C" transform="translate(127.4375,13.5)"/>
</svg>
