<?xml version="1.0" encoding="UTF-8"?>
<svg version="1.1" xmlns="http://www.w3.org/2000/svg" width="1000" height="1000">
<path d="M0 0 C0.99984924 0.00060425 1.99969849 0.0012085 3.02984619 0.00183105 C41.80978102 0.06500687 79.79707904 4.01722954 117.6875 12.1875 C118.71149902 12.40599609 119.73549805 12.62449219 120.79052734 12.84960938 C146.57951266 18.47755648 172.55148943 27.05995044 196.49804688 38.17578125 C198.63877542 39.16498498 200.79280376 40.11698544 202.953125 41.0625 C244.56658007 59.56814556 288.39698475 91.53160118 305.66015625 135.18359375 C307.45580095 140.43397693 308.6853499 145.73442117 309.6875 151.1875 C309.92146484 152.45013672 309.92146484 152.45013672 310.16015625 153.73828125 C312.05419303 167.04007976 308.54649014 179.93611998 300.9375 190.8125 C287.46745 208.34572778 269.26412769 216.58272564 248.1796875 222.05078125 C247.17952606 222.31064819 246.17936462 222.57051514 245.14889526 222.83825684 C235.11875567 225.40057492 225.01284913 227.52472953 214.86676025 229.57037354 C209.61597134 230.6313181 204.37057867 231.71832203 199.125 232.8046875 C198.11196808 233.01431122 197.09893616 233.22393494 196.0552063 233.43991089 C145.27968099 243.92832804 145.27968099 243.92832804 100.6875 269.1875 C99.99914062 269.70699219 99.31078125 270.22648437 98.6015625 270.76171875 C64.53095654 297.66362255 58.33103092 353.42398623 50.28515625 393.09765625 C47.99380449 404.25682529 45.23479148 414.72522268 40.6875 425.1875 C40.23761719 426.22777344 39.78773438 427.26804687 39.32421875 428.33984375 C28.79926784 450.90178078 9.72440663 468.44474964 -13.703125 477.06738281 C-19.50659164 479.02064585 -25.38550501 480.65590455 -31.3125 482.1875 C-32.48167969 482.49429687 -33.65085937 482.80109375 -34.85546875 483.1171875 C-58.48225927 488.70013191 -83.35164362 489.5270797 -107.515625 490.61328125 C-174.69930054 493.46717141 -174.69930054 493.46717141 -231.03125 526.96484375 C-246.66508196 544.93892525 -253.28416552 564.98296447 -258.53271484 587.82861328 C-271.34985142 643.03780707 -291.86863575 698.31971113 -331.3125 740.1875 C-331.93253906 740.86039063 -332.55257812 741.53328125 -333.19140625 742.2265625 C-352.89901029 762.88046068 -380.11829659 776.23941572 -408.78125 777.42578125 C-443.17027921 778.19196703 -482.96358683 766.53922547 -508.5625 742.5625 C-562.10543461 685.35104458 -564.4945678 573.27441986 -562.24932861 500.1295166 C-560.23209607 441.89772607 -551.59096779 383.90044847 -534.3125 328.1875 C-533.77616943 326.43904785 -533.77616943 326.43904785 -533.22900391 324.65527344 C-521.27794082 286.08759764 -505.10181427 248.24971116 -483.3125 214.1875 C-482.83103516 213.43355957 -482.34957031 212.67961914 -481.85351562 211.90283203 C-471.11039989 195.20366982 -459.48936628 179.05572523 -446.3125 164.1875 C-445.07886719 162.78757812 -445.07886719 162.78757812 -443.8203125 161.359375 C-437.98495493 154.86776141 -431.89153903 148.63845959 -425.75 142.4375 C-424.95134521 141.62579346 -424.15269043 140.81408691 -423.32983398 139.9777832 C-422.58032471 139.227146 -421.83081543 138.47650879 -421.05859375 137.703125 C-420.38497803 137.02540039 -419.7113623 136.34767578 -419.01733398 135.64941406 C-417.3125 134.1875 -417.3125 134.1875 -415.3125 134.1875 C-415.3125 133.5275 -415.3125 132.8675 -415.3125 132.1875 C-413.43359375 130.4453125 -413.43359375 130.4453125 -410.75 128.3125 C-409.73550781 127.50425781 -408.72101563 126.69601562 -407.67578125 125.86328125 C-407.12615723 125.42838379 -406.5765332 124.99348633 -406.01025391 124.54541016 C-404.3156735 123.19003825 -402.64636113 121.80839479 -400.98046875 120.41796875 C-354.62319624 82.03089397 -295.83138192 59.97829381 -239.3125 41.1875 C-238.61326416 40.95500549 -237.91402832 40.72251099 -237.19360352 40.48297119 C-174.4447857 19.71774619 -108.44094262 4.95693339 -42.3125 1.1875 C-41.28018753 1.12554947 -41.28018753 1.12554947 -40.22702026 1.06234741 C-26.81414206 0.26666668 -13.43525121 -0.01517758 0 0 Z " fill="#000000" transform="translate(624.3125,142.8125)"/>
</svg>
