<?xml version="1.0" encoding="UTF-8"?>
<svg id="Layer_2" xmlns="http://www.w3.org/2000/svg" viewBox="0 0 210.55 210.55">
  <defs>
    <style>
      .cls-1 {
        fill: #ffb600;
      }

      .cls-2 {
        fill: #5b1500;
      }
    </style>
  </defs>
  <g id="Layer_1-2" data-name="Layer_1">
    <g>
      <path class="cls-2" d="M170.38,190.37c-.99.99-2.02,1.95-3.06,2.87-32.98,29.03-90.46,20.87-130.67-19.34C-3.55,133.7-11.72,76.22,17.31,43.24c.91-1.05,1.87-2.07,2.87-3.06,14.88-14.88,35.58-21.37,57.63-20,25.9,1.6,53.69,14.05,76.1,36.46s34.86,50.19,36.47,76.09c1.38,22.05-5.11,42.75-20,57.64Z"/>
      <path class="cls-2" d="M171.38,189.37c-.99.99-2.02,1.95-3.06,2.87-32.98,29.03-90.46,20.87-130.67-19.34C-2.55,132.7-10.72,75.22,18.31,42.24c.91-1.05,1.87-2.07,2.87-3.06,14.88-14.88,35.58-21.37,57.63-20,25.9,1.6,53.69,14.05,76.1,36.46s34.86,50.19,36.47,76.09c1.38,22.05-5.11,42.75-20,57.64Z"/>
      <path class="cls-2" d="M172.38,188.37c-.99.99-2.02,1.95-3.06,2.87-32.98,29.03-90.46,20.87-130.67-19.34C-1.55,131.7-9.72,74.22,19.31,41.24c.91-1.05,1.87-2.07,2.87-3.06,14.88-14.88,35.58-21.37,57.63-20,25.9,1.6,53.69,14.05,76.1,36.46s34.86,50.19,36.47,76.09c1.38,22.05-5.11,42.75-20,57.64Z"/>
      <path class="cls-2" d="M173.38,187.37c-.99.99-2.02,1.95-3.06,2.87-32.98,29.03-90.46,20.87-130.67-19.34C-.55,130.7-8.72,73.22,20.31,40.24c.91-1.05,1.87-2.07,2.87-3.06,14.88-14.88,35.58-21.37,57.63-20,25.9,1.6,53.69,14.05,76.1,36.46s34.86,50.19,36.47,76.09c1.38,22.05-5.11,42.75-20,57.64Z"/>
      <path class="cls-2" d="M174.38,186.37c-.99.99-2.02,1.95-3.06,2.87-32.98,29.03-90.46,20.87-130.67-19.34C.45,129.7-7.72,72.22,21.31,39.24c.91-1.05,1.87-2.07,2.87-3.06,14.88-14.88,35.58-21.37,57.63-20,25.9,1.6,53.69,14.05,76.1,36.46s34.86,50.19,36.47,76.09c1.38,22.05-5.11,42.75-20,57.64Z"/>
      <path class="cls-2" d="M175.38,185.37c-.99.99-2.02,1.95-3.06,2.87-32.98,29.03-90.46,20.87-130.67-19.34C1.45,128.7-6.72,71.22,22.31,38.24c.91-1.05,1.87-2.07,2.87-3.06,14.88-14.88,35.58-21.37,57.63-20,25.9,1.6,53.69,14.05,76.1,36.46s34.86,50.19,36.47,76.09c1.38,22.05-5.11,42.75-20,57.64Z"/>
      <path class="cls-2" d="M176.38,184.37c-.99.99-2.02,1.95-3.06,2.87-32.98,29.03-90.46,20.87-130.67-19.34C2.45,127.7-5.72,70.22,23.31,37.24c.91-1.05,1.87-2.07,2.87-3.06,14.88-14.88,35.58-21.37,57.63-20,25.9,1.6,53.69,14.05,76.1,36.46s34.86,50.19,36.47,76.09c1.38,22.05-5.11,42.75-20,57.64Z"/>
      <path class="cls-2" d="M177.38,183.37c-.99.99-2.02,1.95-3.06,2.87-32.98,29.03-90.46,20.87-130.67-19.34C3.45,126.7-4.72,69.22,24.31,36.24c.91-1.05,1.87-2.07,2.87-3.06,14.88-14.88,35.58-21.37,57.63-20,25.9,1.6,53.69,14.05,76.1,36.46s34.86,50.19,36.47,76.09c1.38,22.05-5.11,42.75-20,57.64Z"/>
      <path class="cls-2" d="M178.38,182.37c-.99.99-2.02,1.95-3.06,2.87-32.98,29.03-90.46,20.87-130.67-19.34C4.45,125.7-3.72,68.22,25.31,35.24c.91-1.05,1.87-2.07,2.87-3.06,14.88-14.88,35.58-21.37,57.63-20,25.9,1.6,53.69,14.05,76.1,36.46s34.86,50.19,36.47,76.09c1.38,22.05-5.11,42.75-20,57.64Z"/>
      <path class="cls-2" d="M179.38,181.37c-.99.99-2.02,1.95-3.06,2.87-32.98,29.03-90.46,20.87-130.67-19.34C5.45,124.7-2.72,67.22,26.31,34.24c.91-1.05,1.87-2.07,2.87-3.06,14.88-14.88,35.58-21.37,57.63-20,25.9,1.6,53.69,14.05,76.1,36.46s34.86,50.19,36.47,76.09c1.38,22.05-5.11,42.75-20,57.64Z"/>
      <path class="cls-2" d="M180.38,180.37c-.99.99-2.02,1.95-3.06,2.87-32.98,29.03-90.46,20.87-130.67-19.34C6.45,123.7-1.72,66.22,27.31,33.24c.91-1.05,1.87-2.07,2.87-3.06,14.88-14.88,35.58-21.37,57.63-20,25.9,1.6,53.69,14.05,76.1,36.46s34.86,50.19,36.47,76.09c1.38,22.05-5.11,42.75-20,57.64Z"/>
      <path class="cls-2" d="M181.38,179.37c-.99.99-2.02,1.95-3.06,2.87-32.98,29.03-90.46,20.87-130.67-19.34C7.45,122.7-.72,65.22,28.31,32.24c.91-1.05,1.87-2.07,2.87-3.06,14.88-14.88,35.58-21.37,57.63-20,25.9,1.6,53.69,14.05,76.1,36.46s34.86,50.19,36.47,76.09c1.38,22.05-5.11,42.75-20,57.64Z"/>
      <path class="cls-2" d="M182.38,178.37c-.99.99-2.02,1.95-3.06,2.87-32.98,29.03-90.46,20.87-130.67-19.34C8.45,121.7.28,64.22,29.31,31.24c.91-1.05,1.87-2.07,2.87-3.06,14.88-14.88,35.58-21.37,57.63-20,25.9,1.6,53.69,14.05,76.1,36.46s34.86,50.19,36.47,76.09c1.38,22.05-5.11,42.75-20,57.64Z"/>
      <path class="cls-2" d="M183.38,177.37c-.99.99-2.02,1.95-3.06,2.87-32.98,29.03-90.46,20.87-130.67-19.34C9.45,120.7,1.28,63.22,30.31,30.24c.91-1.05,1.87-2.07,2.87-3.06,14.88-14.88,35.58-21.37,57.63-20,25.9,1.6,53.69,14.05,76.1,36.46s34.86,50.19,36.47,76.09c1.38,22.05-5.11,42.75-20,57.64Z"/>
      <path class="cls-2" d="M184.38,176.37c-.99.99-2.02,1.95-3.06,2.87-32.98,29.03-90.46,20.87-130.67-19.34C10.45,119.7,2.28,62.22,31.31,29.24c.91-1.05,1.87-2.07,2.87-3.06,14.88-14.88,35.58-21.37,57.63-20,25.9,1.6,53.69,14.05,76.1,36.46s34.86,50.19,36.47,76.09c1.38,22.05-5.11,42.75-20,57.64Z"/>
      <path class="cls-2" d="M185.38,175.37c-.99.99-2.02,1.95-3.06,2.87-32.98,29.03-90.46,20.87-130.67-19.34C11.45,118.7,3.28,61.22,32.31,28.24c.91-1.05,1.87-2.07,2.87-3.06C50.06,10.29,70.76,3.81,92.81,5.18c25.9,1.6,53.69,14.05,76.1,36.46s34.86,50.19,36.47,76.09c1.38,22.05-5.11,42.75-20,57.64Z"/>
      <path class="cls-2" d="M186.38,174.37c-.99.99-2.02,1.95-3.06,2.87-32.98,29.03-90.46,20.87-130.67-19.34C12.45,117.7,4.28,60.22,33.31,27.24c.91-1.05,1.87-2.07,2.87-3.06C51.06,9.29,71.76,2.81,93.81,4.18c25.9,1.6,53.69,14.05,76.1,36.46s34.86,50.19,36.47,76.09c1.38,22.05-5.11,42.75-20,57.64Z"/>
      <path class="cls-2" d="M187.38,173.37c-.99.99-2.02,1.95-3.06,2.87-32.98,29.03-90.46,20.87-130.67-19.34C13.45,116.7,5.28,59.22,34.31,26.24c.91-1.05,1.87-2.07,2.87-3.06C52.06,8.29,72.76,1.81,94.81,3.18c25.9,1.6,53.69,14.05,76.1,36.46s34.86,50.19,36.47,76.09c1.38,22.05-5.11,42.75-20,57.64Z"/>
      <path class="cls-2" d="M188.38,172.37c-.99.99-2.02,1.95-3.06,2.87-32.98,29.03-90.46,20.87-130.67-19.34C14.45,115.7,6.28,58.22,35.31,25.24c.91-1.05,1.87-2.07,2.87-3.06C53.06,7.29,73.76.81,95.81,2.18c25.9,1.6,53.69,14.05,76.1,36.46s34.86,50.19,36.47,76.09c1.38,22.05-5.11,42.75-20,57.64Z"/>
      <path class="cls-2" d="M189.38,171.37c-.99.99-2.02,1.95-3.06,2.87-32.98,29.03-90.46,20.87-130.67-19.34C15.45,114.7,7.28,57.22,36.31,24.24c.91-1.05,1.87-2.07,2.87-3.06C54.06,6.29,74.76-.19,96.81,1.18c25.9,1.6,53.69,14.05,76.1,36.46s34.86,50.19,36.47,76.09c1.38,22.05-5.11,42.75-20,57.64Z"/>
      <path class="cls-2" d="M190.38,170.37c-.99.99-2.02,1.95-3.06,2.87-32.98,29.03-90.46,20.87-130.67-19.34C16.45,113.7,8.28,56.22,37.31,23.24c.91-1.05,1.87-2.07,2.87-3.06C55.06,5.29,75.76-1.19,97.81.18c25.9,1.6,53.69,14.05,76.1,36.46s34.86,50.19,36.47,76.09c1.38,22.05-5.11,42.75-20,57.64Z"/>
    </g>
    <path class="cls-1" d="M190.38,170.37c-.99.99-2.02,1.95-3.06,2.87-32.98,29.03-90.46,20.87-130.67-19.34C16.45,113.7,8.28,56.22,37.31,23.24c.91-1.05,1.87-2.07,2.87-3.06C55.06,5.29,75.76-1.19,97.81.18c25.9,1.6,53.69,14.05,76.1,36.46s34.86,50.19,36.47,76.09c1.38,22.05-5.11,42.75-20,57.64Z"/>
    <path class="cls-2" d="M178.78,146.16c-2.73,2.73-5.73,5.1-8.93,7.1-1.61-25.9-14.06-53.68-36.47-76.09s-50.19-34.87-76.1-36.46c2-3.2,4.36-6.19,7.1-8.93,24.66-24.66,70.26-19.04,101.85,12.54,31.59,31.59,37.2,77.19,12.54,101.85Z"/>
    <path class="cls-2" d="M178.78,146.16c-2.73,2.73-5.73,5.1-8.93,7.1-1.61-25.9-14.06-53.68-36.47-76.09s-50.19-34.87-76.1-36.46c2-3.2,4.36-6.19,7.1-8.93,24.66-24.66,70.26-19.04,101.85,12.54,31.59,31.59,37.2,77.19,12.54,101.85Z"/>
  </g>
</svg>