<?xml version="1.0" encoding="UTF-8"?>
<svg id="Layer_2" data-name="Layer 2" xmlns="http://www.w3.org/2000/svg" viewBox="0 0 576.89 657.74">
  <defs>
    <style>
      .cls-1 {
        fill: #ffce00;
        stroke-width: 0px;
      }
    </style>
  </defs>
  <g id="Layer_1-2" data-name="Layer 1">
    <path class="cls-1" d="m0,386.4l.25-200.34c.05-43.87,41.23-65.56,77.44-40.8l12.46,8.53,37.99,25.96,114.93,78.58c4.74,3.23,9.33,6.74,13.75,10.49,35.17,29.79,58.57,74.2,63.25,120.05.09.75.15,1.51.21,2.28l34.94-18.41c-4.27-22.86-12.14-45.46-23.36-66.75-17.81-33.81-43.04-62.5-73.01-82.98l-2.88-1.97-115.29-78.79c-3.88-2.64-6.99-6.18-9.15-10.27-2.14-4.06-3.3-8.62-3.3-13.36.04-39.72,44.59-63.24,77.44-40.8l50.45,34.49,114.93,78.58c43.41,29.63,72.56,80.43,77.21,132.83l34.94-18.41c-4.27-22.86-12.14-45.46-23.36-66.75-17.81-33.81-43.05-62.5-73.01-82.98l-118.17-80.76c-3.88-2.64-6.99-6.18-9.15-10.27-2.14-4.06-3.3-8.62-3.3-13.36.05-43.86,41.23-65.56,77.44-40.8l165.38,113.07c43.41,29.63,72.56,80.43,77.21,132.83.48,4.98.69,10,.67,14.99l-.03,31.8-.06,45.36-.14,123.22c0,21.92-10.34,38.33-25.16,46.13l-255.94,134.85c-14.82,7.81-34.19,7.06-52.28-5.33l-101.71-69.56-37.45-25.6-26.25-17.95c-4.12-2.81-8.15-5.82-11.98-9.03C25.31,491.72-.1,438.96,0,386.4Zm486.94-35.93l-38.06,20.05-.06,45.36,38.06-20.05.06-45.36Zm-166.08,132.84l38.06-20.05.06-45.36-38.06,20.05-.06,45.36Z"/>
  </g>
</svg>