<?xml version="1.0" encoding="UTF-8"?>
<svg id="Layer_2" xmlns="http://www.w3.org/2000/svg" viewBox="0 0 228.34 227.35">
  <defs>
    <style>
      .cls-1, .cls-2 {
        fill: #ff00e7;
      }

      .cls-2 {
        stroke: #ff00e7;
        stroke-linejoin: bevel;
        stroke-width: 60px;
      }
    </style>
  </defs>
  <g id="Layer_1-2" data-name="Layer_1">
    <g>
      <polygon class="cls-2" points="157.86 25.99 162.65 87.21 208.25 128.33 151.51 151.8 126.49 207.88 86.63 161.17 25.57 154.7 57.68 102.36 44.96 42.29 104.66 56.65 157.86 25.99"/>
      <path class="cls-1" d="M158.87,38.84l3.78,48.37,36.03,32.49c4.44,4.01,3.19,11.27-2.34,13.56l-44.83,18.54-19.77,44.3c-2.44,5.46-9.74,6.52-13.62,1.97l-31.49-36.9-48.24-5.11c-5.95-.63-9.21-7.25-6.08-12.35l25.37-41.35-10.05-47.46c-1.24-5.85,4.05-10.99,9.86-9.6l47.17,11.35,42.03-24.22c5.18-2.99,11.71.45,12.17,6.41Z"/>
    </g>
  </g>
</svg>