<?xml version="1.0" encoding="UTF-8"?>
<svg id="Layer_2" xmlns="http://www.w3.org/2000/svg" viewBox="0 0 941.56 1000">
  <defs>
    <style>
      .cls-1 {
        fill: #7127ff;
      }
    </style>
  </defs>
  <g id="Layer_1-2" data-name="Layer_1">
    <g>
      <path class="cls-1" d="M470.76,0C210.76,0,0,210.8,0,470.8c0,135.93,57.61,312.97,149.73,450.99,96.22,144.14,321.03,75.85,321.03-97.45,0,173.31,224.81,241.6,321.04,97.46,92.14-138.02,149.76-315.07,149.76-451C941.56,210.8,730.76,0,470.76,0ZM470.76,824.33c-198.09,0-358.12-162.91-353.43-362.06,4.41-187.54,157.37-340.49,344.91-344.9,199.15-4.69,362.05,155.35,362.05,353.43-195.25,0-353.53,158.28-353.53,353.53Z"/>
      <g>
        <circle class="cls-1" cx="352.94" cy="354.27" r="58.83"/>
        <circle class="cls-1" cx="588.62" cy="354.27" r="58.83"/>
      </g>
    </g>
  </g>
</svg>